<svg xmlns="http://www.w3.org/2000/svg" xmlns:xlink="http://www.w3.org/1999/xlink" width="500" zoomAndPan="magnify" viewBox="0 0 375 374.999991" height="500" preserveAspectRatio="xMidYMid meet" version="1.0"><defs><clipPath id="02661c0ae3"><path d="M 115.769531 85.003906 L 170 85.003906 L 170 139.378906 L 115.769531 139.378906 Z M 115.769531 85.003906 " clip-rule="nonzero"/></clipPath><clipPath id="948565a4ee"><path d="M 221.03125 18.785156 L 303.253906 18.785156 L 303.253906 57.011719 L 221.03125 57.011719 Z M 221.03125 18.785156 " clip-rule="nonzero"/></clipPath></defs><path fill="#00bf63" d="M 296.25 75 L 279.375 75 L 279.375 93.75 L 245.625 93.75 L 245.625 75 L 228.75 75 C 218.394531 75 210 66.605469 210 56.25 L 210 18.75 C 210 8.394531 218.394531 0 228.75 0 L 296.25 0 C 306.605469 0 315 8.394531 315 18.75 L 315 56.25 C 315 66.605469 306.605469 75 296.25 75 Z M 296.25 75 " fill-opacity="1" fill-rule="nonzero"/><path fill="#00bf63" d="M 332.914062 243.75 L 41.761719 243.75 L 11.402344 289.550781 C 13.769531 289.027344 16.226562 288.75 18.75 288.75 L 356.25 288.75 C 358.734375 288.75 361.15625 289.019531 363.488281 289.527344 Z M 332.914062 243.75 " fill-opacity="1" fill-rule="nonzero"/><path fill="#00bf63" d="M 356.25 303.75 C 362.382812 303.75 367.824219 306.691406 371.246094 311.242188 C 373.601562 314.375 375 318.273438 375 322.5 L 375 356.25 C 375 366.605469 366.605469 375 356.25 375 L 18.75 375 C 8.394531 375 0 366.605469 0 356.25 L 0 322.5 C 0 318.273438 1.398438 314.378906 3.753906 311.242188 C 7.175781 306.691406 12.617188 303.75 18.75 303.75 Z M 202.5 341.25 C 202.5 349.535156 195.785156 356.25 187.5 356.25 C 179.214844 356.25 172.5 349.535156 172.5 341.25 C 172.5 332.964844 179.214844 326.25 187.5 326.25 C 195.785156 326.25 202.5 332.964844 202.5 341.25 Z M 202.5 341.25 " fill-opacity="1" fill-rule="evenodd"/><path fill="#00bf63" d="M 105 48.75 C 105 44.609375 108.359375 41.25 112.5 41.25 L 172.5 41.25 C 176.640625 41.25 180 44.609375 180 48.75 L 180 172.5 L 105 172.5 Z M 105 48.75 " fill-opacity="1" fill-rule="nonzero"/><path fill="#00bf63" d="M 90 108.75 L 71.25 108.75 C 60.894531 108.75 52.5 117.144531 52.5 127.5 L 52.5 228.75 L 322.5 228.75 L 322.5 127.5 C 322.5 117.144531 314.105469 108.75 303.75 108.75 L 195 108.75 L 195 172.5 L 202.5 172.5 C 206.640625 172.5 210 175.859375 210 180 C 210 184.140625 206.640625 187.5 202.5 187.5 L 82.5 187.5 C 78.359375 187.5 75 184.140625 75 180 C 75 175.859375 78.359375 172.5 82.5 172.5 L 90 172.5 Z M 243.75 153.75 C 239.609375 153.75 236.25 157.109375 236.25 161.25 C 236.25 165.390625 239.609375 168.75 243.75 168.75 L 281.25 168.75 C 285.390625 168.75 288.75 165.390625 288.75 161.25 C 288.75 157.109375 285.390625 153.75 281.25 153.75 Z M 236.25 195 C 236.25 190.859375 239.609375 187.5 243.75 187.5 L 281.25 187.5 C 285.390625 187.5 288.75 190.859375 288.75 195 C 288.75 199.140625 285.390625 202.5 281.25 202.5 L 243.75 202.5 C 239.609375 202.5 236.25 199.140625 236.25 195 Z M 236.25 195 " fill-opacity="1" fill-rule="evenodd"/><g clip-path="url(#02661c0ae3)"><path fill="#ffffff" d="M 142.855469 85.003906 C 127.90625 85.003906 115.769531 97.140625 115.769531 112.089844 C 115.769531 127.039062 127.90625 139.175781 142.855469 139.175781 C 157.804688 139.175781 169.941406 127.039062 169.941406 112.089844 C 169.941406 97.140625 157.804688 85.003906 142.855469 85.003906 Z M 140.148438 98.660156 C 136.304688 99.304688 133.375 102.652344 133.375 106.671875 C 133.375 111.160156 137.015625 114.800781 141.5 114.800781 L 144.210938 114.800781 C 145.703125 114.800781 146.917969 116.011719 146.917969 117.507812 C 146.917969 119.003906 145.703125 120.214844 144.210938 120.214844 L 136.085938 120.214844 C 134.589844 120.214844 133.375 121.429688 133.375 122.925781 C 133.375 124.417969 134.589844 125.632812 136.085938 125.632812 L 140.148438 125.632812 L 140.148438 128.339844 C 140.148438 129.835938 141.359375 131.050781 142.855469 131.050781 C 144.351562 131.050781 145.5625 129.835938 145.5625 128.339844 L 145.5625 125.519531 C 149.40625 124.875 152.335938 121.53125 152.335938 117.507812 C 152.335938 113.023438 148.695312 109.382812 144.210938 109.382812 L 141.5 109.382812 C 140.007812 109.382812 138.792969 108.167969 138.792969 106.671875 C 138.792969 105.222656 139.929688 104.039062 141.363281 103.96875 L 141.5 103.964844 L 149.625 103.964844 C 151.121094 103.964844 152.335938 102.75 152.335938 101.257812 C 152.335938 99.761719 151.121094 98.546875 149.625 98.546875 L 145.5625 98.546875 L 145.5625 95.839844 C 145.5625 94.34375 144.351562 93.132812 142.855469 93.132812 C 141.359375 93.132812 140.148438 94.34375 140.148438 95.839844 Z M 140.148438 98.660156 " fill-opacity="1" fill-rule="evenodd"/></g><g clip-path="url(#948565a4ee)"><path fill="#2f2f2f" d="M 221.03125 18.785156 L 303.304688 18.785156 L 303.304688 57.011719 L 221.03125 57.011719 Z M 221.03125 18.785156 " fill-opacity="1" fill-rule="nonzero"/></g></svg>